# xmcd CD database file
#
# Track frame offsets:
#	150
#	10011
#	27917
#	44451
#	68466
#	103193
#	124231
#	145169
#	165951
#	188936
#	205868
#	227218
#	252191
#
# Disc length: 3620 seconds
#
# Revision: 0
# Processed by: cddbd v1.5.1PL2 Copyright (c) Steve Scherf et al.
# Submitted via: CDex 1.51
#
DISCID=aa0e220d
DTITLE=Rainy - Pluie Eternelle Disc.I
DYEAR=2005
DGENRE=Instrumental
TTITLE0=Opening
TTITLE1=260 -Return the Nightmare-
TTITLE2=Sei
TTITLE3=pas
TTITLE4=Fatal Error
TTITLE5=!Precaution Level 6.
TTITLE6=Passion Again
TTITLE7=日食
TTITLE8=Restoration
TTITLE9=Sequence
TTITLE10=Mr,S [Return]
TTITLE11=NRG-CORE
TTITLE12=Connect to Second!!
EXTD=YEAR: 2005
EXTT0=
EXTT1=
EXTT2=
EXTT3=
EXTT4=
EXTT5=
EXTT6=
EXTT7=
EXTT8=
EXTT9=
EXTT10=
EXTT11=
EXTT12=
PLAYORDER=
